<?xml version="1.0" encoding="utf-8"?>
<!-- Generator: Adobe Illustrator 28.3.0, SVG Export Plug-In . SVG Version: 6.00 Build 0)  -->
<svg version="1.1" id="Layer_1" xmlns="http://www.w3.org/2000/svg" xmlns:xlink="http://www.w3.org/1999/xlink" x="0px" y="0px"
	 viewBox="0 0 1080 1080" style="enable-background:new 0 0 1080 1080;" xml:space="preserve">
<style type="text/css">
	.st0{fill:#F4EFEB;}
	.st1{fill:url(#SVGID_1_);}
	.st2{opacity:0.7;fill:url(#SVGID_00000104692471495746229800000008278695806323924616_);}
</style>
<g>
	<g>
		<path class="st0" d="M372.9,597.88c-7.37,0-14.43-0.99-21.18-2.96c-6.75-1.97-12.19-4.54-16.31-7.69l7.23-16.05
			c3.95,2.81,8.61,5.11,14.01,6.91c5.39,1.8,10.85,2.7,16.38,2.7c4.21,0,7.61-0.42,10.19-1.25c2.59-0.83,4.49-1.99,5.72-3.49
			c1.23-1.49,1.84-3.2,1.84-5.13c0-2.45-0.97-4.41-2.89-5.85c-1.93-1.45-4.47-2.63-7.63-3.55c-3.16-0.92-6.64-1.8-10.46-2.63
			c-3.81-0.83-7.63-1.86-11.44-3.09c-3.81-1.23-7.3-2.81-10.46-4.74c-3.16-1.93-5.72-4.47-7.69-7.63c-1.97-3.16-2.96-7.19-2.96-12.1
			c0-5.26,1.42-10.06,4.27-14.4c2.85-4.34,7.15-7.8,12.89-10.39c5.74-2.59,12.96-3.88,21.64-3.88c5.79,0,11.49,0.68,17.1,2.04
			c5.61,1.36,10.57,3.4,14.86,6.12l-6.58,16.18c-4.3-2.45-8.59-4.27-12.89-5.46c-4.3-1.18-8.51-1.78-12.63-1.78
			c-4.12,0-7.5,0.48-10.13,1.45c-2.63,0.97-4.52,2.22-5.66,3.75c-1.14,1.54-1.71,3.31-1.71,5.33c0,2.37,0.96,4.27,2.89,5.72
			c1.93,1.45,4.47,2.61,7.63,3.49c3.16,0.88,6.64,1.76,10.46,2.63c3.81,0.88,7.63,1.89,11.44,3.02c3.81,1.14,7.3,2.68,10.46,4.6
			c3.16,1.93,5.72,4.47,7.69,7.63c1.97,3.16,2.96,7.15,2.96,11.97c0,5.17-1.45,9.91-4.34,14.21c-2.89,4.3-7.21,7.76-12.96,10.39
			C388.92,596.56,381.67,597.88,372.9,597.88z"/>
		<path class="st0" d="M425.11,596.3V498.7h20.52v97.59H425.11z M442.08,581.83l0.53-24.99l33.01-31.3h24.46l-31.7,32.22
			l-10.65,8.68L442.08,581.83z M477.86,596.3l-23.94-29.73l12.89-15.92l35.91,45.64H477.86z"/>
		<path class="st0" d="M522.18,515.67c-3.77,0-6.84-1.1-9.21-3.29c-2.37-2.19-3.55-4.91-3.55-8.15c0-3.24,1.18-5.96,3.55-8.15
			c2.37-2.19,5.44-3.29,9.21-3.29c3.77,0,6.84,1.03,9.21,3.09c2.37,2.06,3.55,4.71,3.55,7.96c0,3.42-1.16,6.25-3.49,8.48
			C529.13,514.55,526.04,515.67,522.18,515.67z M511.92,596.3v-70.76h20.52v70.76H511.92z"/>
		<path class="st0" d="M551.51,596.3V498.7h20.52v97.59H551.51z"/>
		<path class="st0" d="M591.1,596.3V498.7h20.52v97.59H591.1z"/>
		<path class="st0" d="M665.81,597.35c-8.07,0-15.15-1.58-21.24-4.73c-6.1-3.16-10.81-7.47-14.14-12.96c-3.33-5.48-5-11.73-5-18.74
			c0-7.1,1.64-13.39,4.93-18.88c3.29-5.48,7.78-9.78,13.48-12.89c5.7-3.11,12.14-4.67,19.33-4.67c6.93,0,13.17,1.47,18.74,4.41
			c5.57,2.94,9.97,7.15,13.22,12.63c3.24,5.48,4.87,12.04,4.87,19.66c0,0.79-0.04,1.69-0.13,2.7c-0.09,1.01-0.18,1.95-0.26,2.83
			h-57.48v-11.97h46.69l-7.89,3.55c0-3.68-0.75-6.88-2.24-9.6c-1.49-2.72-3.55-4.84-6.18-6.38c-2.63-1.53-5.7-2.3-9.21-2.3
			c-3.51,0-6.6,0.77-9.27,2.3c-2.68,1.54-4.76,3.68-6.25,6.44c-1.49,2.76-2.24,6.03-2.24,9.8v3.16c0,3.86,0.85,7.26,2.56,10.19
			c1.71,2.94,4.12,5.17,7.23,6.71c3.11,1.54,6.77,2.3,10.98,2.3c3.77,0,7.08-0.57,9.93-1.71c2.85-1.14,5.46-2.85,7.83-5.13
			l10.92,11.84c-3.25,3.68-7.32,6.51-12.23,8.48C677.86,596.36,672.21,597.35,665.81,597.35z"/>
		<path class="st0" d="M713.68,596.3v-70.76h19.6v19.99l-2.76-5.79c2.1-5,5.48-8.79,10.13-11.38c4.65-2.58,10.3-3.88,16.97-3.88
			v18.94c-0.88-0.09-1.67-0.15-2.37-0.2c-0.7-0.04-1.45-0.07-2.24-0.07c-5.61,0-10.15,1.6-13.61,4.8c-3.46,3.2-5.2,8.18-5.2,14.93
			v33.41H713.68z"/>
		<path class="st0" d="M794.18,597.35c-6.05,0-11.86-0.72-17.43-2.17c-5.57-1.45-9.98-3.27-13.22-5.46l6.84-14.73
			c3.24,2.02,7.08,3.66,11.51,4.93c4.43,1.27,8.79,1.91,13.09,1.91c4.74,0,8.09-0.57,10.06-1.71c1.97-1.14,2.96-2.72,2.96-4.74
			c0-1.67-0.77-2.91-2.3-3.75c-1.54-0.83-3.57-1.47-6.12-1.91c-2.54-0.44-5.33-0.88-8.35-1.32c-3.03-0.44-6.07-1.03-9.14-1.78
			c-3.07-0.75-5.88-1.86-8.42-3.35c-2.54-1.49-4.58-3.51-6.12-6.05c-1.54-2.54-2.3-5.83-2.3-9.86c0-4.47,1.29-8.42,3.88-11.84
			c2.58-3.42,6.33-6.12,11.25-8.09c4.91-1.97,10.79-2.96,17.62-2.96c4.82,0,9.73,0.53,14.73,1.58c5,1.05,9.16,2.59,12.5,4.6
			l-6.84,14.6c-3.42-2.02-6.86-3.4-10.32-4.14c-3.47-0.74-6.82-1.12-10.06-1.12c-4.56,0-7.89,0.61-10,1.84
			c-2.1,1.23-3.16,2.81-3.16,4.74c0,1.75,0.77,3.07,2.3,3.95c1.53,0.88,3.57,1.58,6.12,2.1c2.54,0.53,5.33,0.99,8.35,1.38
			c3.03,0.39,6.07,0.99,9.14,1.78c3.07,0.79,5.85,1.91,8.35,3.35c2.5,1.45,4.54,3.42,6.12,5.92s2.37,5.77,2.37,9.8
			c0,4.39-1.32,8.27-3.95,11.64c-2.63,3.38-6.42,6.03-11.38,7.96C807.31,596.38,801.28,597.35,794.18,597.35z"/>
		<path class="st0" d="M850.47,515.67c-3.77,0-6.84-1.1-9.21-3.29c-2.37-2.19-3.55-4.91-3.55-8.15c0-3.24,1.18-5.96,3.55-8.15
			c2.37-2.19,5.44-3.29,9.21-3.29c3.77,0,6.84,1.03,9.21,3.09c2.37,2.06,3.55,4.71,3.55,7.96c0,3.42-1.16,6.25-3.49,8.48
			C857.42,514.55,854.33,515.67,850.47,515.67z M840.21,596.3v-70.76h20.52v70.76H840.21z"/>
		<path class="st0" d="M871.38,542.9v-15.78h49.06v15.78H871.38z M908.74,597.35c-8.33,0-14.82-2.12-19.47-6.38
			c-4.65-4.25-6.97-10.59-6.97-19.01v-62.08h20.52v61.82c0,2.98,0.79,5.28,2.37,6.91c1.58,1.62,3.73,2.43,6.44,2.43
			c3.24,0,6-0.88,8.29-2.63l5.52,14.47c-2.1,1.49-4.63,2.61-7.56,3.35C914.94,596.98,911.89,597.35,908.74,597.35z"/>
		<path class="st0" d="M944.64,622.87c-3.68,0-7.32-0.57-10.92-1.71c-3.6-1.14-6.53-2.72-8.81-4.73l7.5-14.6
			c1.58,1.4,3.4,2.5,5.46,3.29c2.06,0.79,4.1,1.18,6.12,1.18c2.89,0,5.2-0.68,6.91-2.04c1.71-1.36,3.27-3.62,4.67-6.77l3.68-8.68
			l1.58-2.24l25.38-61.03h19.73l-31.96,75.1c-2.28,5.7-4.89,10.17-7.83,13.42c-2.94,3.24-6.18,5.52-9.73,6.84
			C952.87,622.21,948.94,622.87,944.64,622.87z M956.75,599.06l-31.57-73.52h21.18l24.46,59.19L956.75,599.06z"/>
	</g>
</g>
<g>
	<linearGradient id="SVGID_1_" gradientUnits="userSpaceOnUse" x1="229.5993" y1="418.5541" x2="216.027" y2="615.8743">
		<stop  offset="0" style="stop-color:#567C8D"/>
		<stop  offset="1" style="stop-color:#F5EFEB"/>
	</linearGradient>
	<path class="st1" d="M303.92,443.75H150.82c0,0-18.37,2.04-18.37,20.41s0,85.74,0,85.74l2.04,44.91c0,0,8.17,36.75,34.7,14.29
		c26.54-22.46,104.11-89.82,104.11-89.82l44.91-40.83C318.21,478.46,328.42,451.92,303.92,443.75z"/>
	
		<linearGradient id="SVGID_00000116223835039743053470000014027747685879187590_" gradientUnits="userSpaceOnUse" x1="164.2114" y1="638.673" x2="183.0038" y2="510.2583">
		<stop  offset="0.2952" style="stop-color:#567C8D"/>
		<stop  offset="1" style="stop-color:#F5EFEB"/>
	</linearGradient>
	<path style="opacity:0.7;fill:url(#SVGID_00000116223835039743053470000014027747685879187590_);" d="M90,633.02l153.07,3.22
		c0,0,18.41-1.65,18.8-20.02c0.39-18.37,1.8-85.72,1.8-85.72l-1.1-44.94c0,0-7.39-36.91-34.4-15.02S122.2,558.15,122.2,558.15
		l-45.76,39.87C76.44,598.03,65.68,624.35,90,633.02z"/>
</g>
</svg>
